<svg width="100%" height="100%" id="svg" viewBox="0 0 1440 700" xmlns="http://www.w3.org/2000/svg" class="transition duration-300 ease-in-out delay-150"><path d="M 0,700 C 0,700 0,175 0,175 C 107.33014354066987,213.05741626794259 214.66028708133973,251.11483253588517 313,229 C 411.33971291866027,206.88516746411483 500.6889952153109,124.59808612440192 603,114 C 705.3110047846891,103.40191387559808 820.5837320574165,164.4928229665072 909,181 C 997.4162679425835,197.5071770334928 1058.9760765550238,169.4306220095694 1143,161 C 1227.0239234449762,152.5693779904306 1333.5119617224882,163.7846889952153 1440,175 C 1440,175 1440,700 1440,700 Z" stroke="none" stroke-width="0" fill="#0693e366" class="transition-all duration-300 ease-in-out delay-150 path-0"></path><path d="M 0,700 C 0,700 0,350 0,350 C 105.1866028708134,325.95215311004785 210.3732057416268,301.9043062200957 314,292 C 417.6267942583732,282.0956937799043 519.6937799043062,286.334928229665 612,319 C 704.3062200956938,351.665071770335 786.8516746411483,412.7559808612441 888,410 C 989.1483253588517,407.2440191387559 1108.8995215311006,340.6411483253588 1204,320 C 1299.1004784688994,299.3588516746412 1369.5502392344497,324.6794258373206 1440,350 C 1440,350 1440,700 1440,700 Z" stroke="none" stroke-width="0" fill="#0693e388" class="transition-all duration-300 ease-in-out delay-150 path-1"></path><path d="M 0,700 C 0,700 0,525 0,525 C 67.00478468899519,540.6267942583731 134.00956937799037,556.2535885167464 242,573 C 349.9904306220096,589.7464114832536 498.9665071770336,607.6124401913876 600,580 C 701.0334928229664,552.3875598086124 754.1244019138755,479.29665071770336 829,473 C 903.8755980861245,466.70334928229664 1000.5358851674641,527.200956937799 1106,547 C 1211.4641148325359,566.799043062201 1325.732057416268,545.8995215311005 1440,525 C 1440,525 1440,700 1440,700 Z" stroke="none" stroke-width="0" fill="#0693e3ff" class="transition-all duration-300 ease-in-out delay-150 path-2"></path></svg>