<svg width="100%" height="100%" id="svg" viewBox="0 0 1440 700" xmlns="http://www.w3.org/2000/svg" class="transition duration-300 ease-in-out delay-150"><defs><linearGradient id="gradient" x1="0%" y1="50%" x2="100%" y2="50%"><stop offset="5%" stop-color="#ff690066"></stop><stop offset="95%" stop-color="#32ded466"></stop></linearGradient></defs><path d="M 0,700 C 0,700 0,175 0,175 C 63.07866712469942,188.45791824115423 126.15733424939884,201.9158364823085 195,207 C 263.84266575060116,212.0841635176915 338.449330127104,208.7945723119203 413,204 C 487.550669872896,199.2054276880797 562.0453452421848,192.90587427001032 623,190 C 683.9546547578152,187.09412572998968 731.3692889041565,187.58193060803845 791,168 C 850.6307110958435,148.41806939196155 922.4774991411887,108.7664032978358 992,116 C 1061.5225008588113,123.2335967021642 1128.7207145310888,177.35245620061835 1203,195 C 1277.2792854689112,212.64754379938165 1358.6396427344557,193.82377189969083 1440,175 C 1440,175 1440,700 1440,700 Z" stroke="none" stroke-width="0" fill="url(#gradient)" class="transition-all duration-300 ease-in-out delay-150 path-0"></path><defs><linearGradient id="gradient" x1="0%" y1="50%" x2="100%" y2="50%"><stop offset="5%" stop-color="#ff690088"></stop><stop offset="95%" stop-color="#32ded488"></stop></linearGradient></defs><path d="M 0,700 C 0,700 0,350 0,350 C 89.21332875300584,354.3648230848505 178.42665750601168,358.7296461697011 235,367 C 291.5733424939883,375.2703538302989 315.5066987289591,387.44623840604606 386,396 C 456.4933012710409,404.55376159395394 573.5465475781518,409.4854002061148 653,388 C 732.4534524218482,366.5145997938852 774.3071109584337,318.612160769495 837,315 C 899.6928890415663,311.387839230505 983.2250085881137,352.0659567159052 1051,347 C 1118.7749914118863,341.9340432840948 1170.7928546891103,291.12401236688424 1233,284 C 1295.2071453108897,276.87598763311576 1367.6035726554449,313.4379938165579 1440,350 C 1440,350 1440,700 1440,700 Z" stroke="none" stroke-width="0" fill="url(#gradient)" class="transition-all duration-300 ease-in-out delay-150 path-1"></path><defs><linearGradient id="gradient" x1="0%" y1="50%" x2="100%" y2="50%"><stop offset="5%" stop-color="#ff6900ff"></stop><stop offset="95%" stop-color="#32ded4ff"></stop></linearGradient></defs><path d="M 0,700 C 0,700 0,525 0,525 C 58.90621779457231,530.2250085881141 117.81243558914463,535.4500171762281 196,549 C 274.1875644108554,562.5499828237719 371.6564754379938,584.4249398832015 439,578 C 506.3435245620062,571.5750601167985 543.5616626588801,536.8502232909652 607,516 C 670.4383373411199,495.1497767090347 760.0968739264857,488.1741669529372 836,505 C 911.9031260735143,521.8258330470628 974.0508416351768,562.453108897286 1044,566 C 1113.9491583648232,569.546891102714 1191.6997595328066,536.0133974579182 1259,523 C 1326.3002404671934,509.9866025420817 1383.1501202335967,517.4933012710409 1440,525 C 1440,525 1440,700 1440,700 Z" stroke="none" stroke-width="0" fill="url(#gradient)" class="transition-all duration-300 ease-in-out delay-150 path-2"></path></svg>